<svg width="189" height="180" viewBox="0 0 189 180" fill="none" xmlns="http://www.w3.org/2000/svg">
<path id="Star 5" d="M84.0384 8.19757C87.3312 -1.93685 101.669 -1.93685 104.962 8.19757L119.533 53.0446C121.006 57.5769 125.229 60.6454 129.995 60.6454H177.15C187.806 60.6454 192.236 74.2812 183.616 80.5446L145.466 108.262C141.611 111.063 139.998 116.028 141.47 120.56L156.042 165.407C159.335 175.541 147.736 183.969 139.115 177.705L100.966 149.988C97.1103 147.187 91.8897 147.187 88.0344 149.988L49.8852 177.705C41.2643 183.969 29.6651 175.541 32.9579 165.407L47.5296 120.56C49.0022 116.028 47.389 111.063 43.5336 108.262L5.38445 80.5446C-3.2364 74.2812 1.19413 60.6454 11.8501 60.6454H59.0051C63.7706 60.6454 67.9941 57.5769 69.4667 53.0446L84.0384 8.19757Z" fill="#FF78C9"/>
</svg>
