<svg width="411" height="392" viewBox="0 0 411 392" fill="none" xmlns="http://www.w3.org/2000/svg">
<path id="Star 2" d="M195.038 8.19757C198.331 -1.93685 212.669 -1.93687 215.962 8.19755L256.801 133.89C258.274 138.422 262.498 141.49 267.263 141.49L399.423 141.49C410.079 141.49 414.51 155.126 405.889 161.39L298.969 239.072C295.114 241.873 293.501 246.838 294.973 251.37L335.813 377.062C339.106 387.196 327.507 395.624 318.886 389.36L211.966 311.678C208.11 308.877 202.89 308.877 199.034 311.678L92.1143 389.36C83.4935 395.624 71.8942 387.196 75.1871 377.062L116.027 251.37C117.499 246.838 115.886 241.873 112.031 239.072L5.11086 161.39C-3.50999 155.126 0.920522 141.49 11.5765 141.49L143.737 141.49C148.502 141.49 152.726 138.422 154.199 133.89L195.038 8.19757Z" fill="#8000FF"/>
</svg>
