<svg width="480" height="458" viewBox="0 0 480 458" fill="none" xmlns="http://www.w3.org/2000/svg">
<path id="Star 1" d="M229.538 8.19755C232.831 -1.93687 247.169 -1.93686 250.462 8.19756L299.496 159.11C300.969 163.643 305.192 166.711 309.958 166.711H468.637C479.293 166.711 483.724 180.347 475.103 186.61L346.729 279.88C342.873 282.681 341.26 287.646 342.733 292.178L391.767 443.091C395.06 453.226 383.461 461.653 374.84 455.39L246.466 362.12C242.61 359.319 237.39 359.319 233.534 362.12L105.16 455.39C96.5393 461.653 84.94 453.226 88.2329 443.091L137.267 292.178C138.74 287.646 137.127 282.681 133.271 279.88L4.89726 186.61C-3.72359 180.347 0.70695 166.711 11.3629 166.711H170.042C174.808 166.711 179.031 163.643 180.504 159.11L229.538 8.19755Z" fill="#001AFF"/>
</svg>
