<svg width="249" height="238" viewBox="0 0 249 238" fill="none" xmlns="http://www.w3.org/2000/svg">
<path id="Star 4" d="M114.038 8.19758C117.331 -1.93683 131.669 -1.93685 134.962 8.19757L156.718 75.1561C158.19 79.6883 162.414 82.7569 167.179 82.7569H237.584C248.24 82.7569 252.67 96.3926 244.049 102.656L187.091 144.039C183.236 146.84 181.622 151.805 183.095 156.337L204.851 223.296C208.144 233.43 196.545 241.857 187.924 235.594L130.966 194.211C127.11 191.41 121.89 191.41 118.034 194.211L61.0761 235.594C52.4552 241.857 40.8559 233.43 44.1488 223.296L65.9049 156.337C67.3775 151.805 65.7643 146.84 61.909 144.039L4.95067 102.656C-3.67018 96.3927 0.760326 82.7569 11.4163 82.7569H81.8206C86.5861 82.7569 90.8096 79.6883 92.2822 75.1561L114.038 8.19758Z" fill="#FF00E5"/>
</svg>
