<svg width="321" height="307" viewBox="0 0 321 307" fill="none" xmlns="http://www.w3.org/2000/svg">
<path id="Star 3" d="M150.038 8.19757C153.331 -1.93685 167.669 -1.93686 170.962 8.19755L201.249 101.413C202.722 105.946 206.945 109.014 211.711 109.014H309.724C320.38 109.014 324.81 122.65 316.189 128.913L236.895 186.524C233.04 189.325 231.427 194.29 232.899 198.822L263.187 292.038C266.48 302.173 254.881 310.6 246.26 304.337L166.966 246.726C163.11 243.925 157.89 243.925 154.034 246.726L74.7402 304.337C66.1194 310.6 54.5201 302.173 57.813 292.038L88.1006 198.822C89.5732 194.29 87.96 189.325 84.1046 186.524L4.81051 128.913C-3.81034 122.65 0.620178 109.014 11.2761 109.014H109.289C114.055 109.014 118.278 105.946 119.751 101.413L150.038 8.19757Z" fill="#CC00FF"/>
</svg>
